<svg xmlns="http://www.w3.org/2000/svg" width="256" height="256" fill="none" viewBox="0 0 256 256" shape-rendering="geometricPrecision">
  <path d="m253 34.78v186.4c0 17.54-14.24 31.77-31.77 31.77h-186.4c-17.54 0-31.77-14.24-31.77-31.77v-186.4c0-17.54 14.24-31.77 31.77-31.77h186.4c17.54 0 31.77 14.24 31.77 31.77z" fill="url(#paint0_linear_2_11)"/>
  <path d="m41.91 149.2c-3 0-4.29 3.68-4.73 6.54l0.79 0.33c1.07-2 2.54-4.44 4.31-5.34 0.85-0.43 1.4-1.53-0.37-1.53z" fill="#2BB673"/>
  <path d="m57.79 82.62h-26.3v59.29h13.42v-20.94h11.69c13.35 0 20.95-8.08 20.95-18.49 0-10.34-6.94-19.86-19.76-19.86zm-2.61 28.09h-10.27v-18.35h10.12c7.09 0 9.92 4.02 9.92 9.69 0 5.38-3.12 8.66-9.77 8.66z" fill="#23C264"/>
  <path d="m95.25 87.01h-8.3c-1.08 0-1.79 0.7-1.79 1.78v53.12h11.88v-53.12c0-1.08-0.71-1.78-1.79-1.78z" fill="#23C264"/>
  <rect x="89.9" y="72.8" width="3.8" height="14.4" rx="1.9" fill="url(#paint1_linear_2_11)"/>
  <path d="m143.6 113.3c0-11.25-5.67-16.63-18.42-16.63-11.54 0-18.48 5.6-18.7 14.01h11.62c0.49-2.91 2.08-4.76 6.32-4.76 4.94 0 6.02 2.76 6.02 7.93v0.85h-6.44c-11.11 0-18.41 4.31-18.41 13.9 0 8 6.29 13.67 14.84 13.67 5.67 0 8.79-1.92 11-4.61 0.07 1.15 0.36 3 0.86 4.08h12.6c-1.01-3.05-1.29-6.47-1.29-9.59v-18.85zm-13.16 14.95c-1.51 2.62-4.56 4.76-8.05 4.76-3.28 0-5.06-1.92-5.06-4.83 0-4.16 3.19-6.01 8.72-6.01h4.39v6.08z" fill="#23C264"/>
  <path d="m177 96.63c-6.72 0-10.14 2.69-12.83 6.33l-0.5-5.38h-12.02v44.33h12.89v-28.87c1.43-3.42 3.86-5.92 7.64-5.92 5.38 0 6.98 3.42 6.98 9.64v25.15h11.88v-26.51c0-11.95-5.02-18.77-14.04-18.77z" fill="#23C264"/>
  <path d="m224.3 132.1c-1.53 0.28-3.07 0.5-4.67 0.5-3.2 0-4.73-1.53-4.73-5.24v-20.61h8.81v-9.18h-8.81v-11.32h-11.95v11.32h-6.58v9.18h6.29v22.34c0 8.62 4.59 13.42 13.21 13.42 3.2 0 6.1-0.5 8.43-1.28v-9.13z" fill="#23C264"/>
  <path d="m114.9 51.96c-2 4.31-4.4 3.6-12.18 5.75-10.56 3.07-10.9 11.2-10.4 15.6 4.56-6.29 8.77-9.05 14.61-12.25-6.01 4.8-12.01 9.9-14.11 24.1h-1.6c-0.08-5.75-3.23-9.57-8.39-12.95 3.75 1.22 6.05 3.06 7.27 4.91-0.3-3.31-2.18-9.31-8.33-10.5-4.07-0.8-6.47-0.54-8.07-3.16-1.22 6.65 4.16 14.65 10.95 15.15 3.49 0.35 5.09 2.01 5.52 6.55h0.97c0.08 2.91 0.08 3.78 0.08 3.78h2.3s-0.23-5.83 2.07-12.84c14.35-0.93 20.13-14.04 19.31-24.14z" fill="url(#paint1_linear_2_11)"/>
  <path d="m62.79 157.3c-5.08 0-7.28 2.83-8.36 4.55-1.47-2.9-4.16-4.55-7.72-4.55-4.37 0-6.63 2.26-7.99 4.18l-0.71-3.49h-4.3c-1.57 1.79-3.1 4.73-3.43 8.15h3.43v2.06h-3.6c-0.05 0.73-0.09 1.47-0.09 2.23 0 1.3 0.11 2.6 0.32 3.88h3.37v2.69h-2.83c2.01 7.79 6.83 16.2 10.18 18.56 1 0.57 1.71-0.07 1.07-1.21-1.22-2.07-2.12-6.46-2.12-11.19v-14.96c0.79-2.53 2.33-3.82 4.76-3.82 2.98 0 3.69 2.07 3.69 5.92v15.19h7.86v-17.36c0.79-2.3 2.32-3.75 4.65-3.75 2.98 0 3.77 2.07 3.77 5.92v15.19h6.82v-16.34c0-7.3-3.12-11.85-8.77-11.85z" fill="#F47B20"/>
  <path d="m99.38 169c0-7.6-3.64-11.78-11.86-11.78-7.01 0-11.1 3.82-11.24 9.15h8.07c0.33-1.92 1.41-3.14 4.1-3.14 3.19 0 3.9 1.85 3.9 5.27v0.57h-4.12c-7.3 0-11.92 2.91-12.75 8 0 5.53 4.1 8.84 9.69 8.84 3.78 0 5.77-1.29 7.18-2.89 0 0.79 0.22 1.87 0.57 2.58h7.6c-0.71-2-1.14-4.21-1.14-6.28v-10.32zm-7.6 8.07c-1.01 1.72-2.9 2.68-5.03 2.68-2.14 0-3.29-1.25-3.29-3.1 0-2.76 2.06-3.98 5.7-3.98h2.62v4.4z" fill="#F47B20"/>
  <path d="m128 158h-8.23l-4.55 9.1-4.47-9.1h-8l7.04 13.95-7.04 13.73h8.36l4.55-8.87 4.73 8.87h8.08l-7.72-14.01 7.25-13.67z" fill="#F47B20"/>
  <path d="m153.8 158h-8.23l-4.55 9.1-4.47-9.1h-8l7.72 13.95-8.29 13.73h8.93l4.55-8.87 4.73 8.87h8.08l-7.72-14.01 7.25-13.67z" fill="#F47B20"/>
  <path d="m161.8 146.1c-3.42 0-4.89 1.75-4.89 4.28s1.69 4.28 4.67 4.28c3.19 0 4.66-1.82 4.66-4.42 0-2.46-1.53-4.14-4.44-4.14z" fill="#F47B20"/>
  <path d="m157.8 158v27.47h7.86v-27.47h-7.86z" fill="#F47B20"/>
  <path d="m186.2 157.3c-4.37 0-6.44 1.65-8.03 3.57l-0.28-2.9h-6.72v27.47h7.62v-18.35c0.93-1.92 2.53-3.24 4.89-3.24 3.42 0 4.28 2.14 4.28 6.03v15.58h7.01v-16.6c0-7.3-3.05-11.56-8.77-11.56z" fill="#F47B20"/>
  <path d="m217.1 158-0.29 2.53c-1.6-1.92-3.86-3.22-7.35-3.22-7.04 0-10.6 6.44-10.6 14.36 0 7.6 3.85 14.04 10.67 14.04 2.91 0 5.07-1.22 6.61-2.94v1.67c0 4.16-2.24 5.59-6.33 5.59-3.35 0-5.49-1.85-6.57-3.28l-3.31 5.23c2.53 2.69 5.88 4.05 11.11 4.05 8.36 0 13.3-5.23 13.3-11.81v-26.22h-7.24zm-1.18 19.23c-1.15 1.6-2.51 2.46-4.68 2.46-3.92 0-4.71-3.56-4.71-8.18 0-4.7 1.72-7.32 5.21-7.32 1.99 0 3.28 0.93 4.18 2.08v10.96z" fill="#F47B20"/>
  <defs>
    <linearGradient id="paint0_linear_2_11" x1="3.008" x2="256.2" y1="3.008" y2="256" gradientUnits="userSpaceOnUse">
      <stop stop-color="#1B543A" offset="0"/>
      <stop stop-color="#143621" offset="1"/>
    </linearGradient>
    <linearGradient id="paint1_linear_2_11" x1="73.44" x2="104.3" y1="51.96" y2="86.8" gradientUnits="userSpaceOnUse">
      <stop stop-color="#23C264" offset="0"/>
      <stop stop-color="#23B664" offset="1"/>
    </linearGradient>
  </defs>
</svg>
